<?xml version="1.0" standalone="no"?><!DOCTYPE svg PUBLIC "-//W3C//DTD SVG 1.1//EN" "http://www.w3.org/Graphics/SVG/1.1/DTD/svg11.dtd"><svg t="1523326162856" class="icon" style="" viewBox="0 0 1024 1024" version="1.1" xmlns="http://www.w3.org/2000/svg" p-id="2698" xmlns:xlink="http://www.w3.org/1999/xlink" width="200" height="200"><defs><style type="text/css"></style></defs><path d="M490.666667 213.333333V0h42.666666v213.333333h128c25.6 0 42.666667 17.066667 42.666667 42.666667v554.666667c0 25.6-17.066667 42.666667-42.666667 42.666666H533.333333v170.666667H490.666667v-170.666667H362.666667c-25.6 0-42.666667-17.066667-42.666667-42.666666V256c0-25.6 17.066667-42.666667 42.666667-42.666667h128z" fill="#BFBFBF" p-id="2699"></path><path d="M413.866667 362.666667c0-12.8 8.533333-21.333333 21.333333-21.333334s21.333333 8.533333 21.333333 21.333334v341.333333c0 12.8-8.533333 21.333333-21.333333 21.333333s-21.333333-8.533333-21.333333-21.333333v-341.333333zM567.466667 362.666667c0-12.8 8.533333-21.333333 21.333333-21.333334s21.333333 8.533333 21.333333 21.333334v341.333333c0 12.8-8.533333 21.333333-21.333333 21.333333s-21.333333-8.533333-21.333333-21.333333v-341.333333z" fill="#EFF2F9" p-id="2700"></path></svg>